<svg width="16" height="16" viewBox="0 0 16 16" fill="none" xmlns="http://www.w3.org/2000/svg">
<g clip-path="url(#clip0_18968_17)">
<mask id="mask0_18968_17" style="mask-type:luminance" maskUnits="userSpaceOnUse" x="-32" y="-12" width="65" height="42">
<path d="M-31.4258 29.6787H32.3628V-11.5944H-31.4258V29.6787Z" fill="white"/>
</mask>
<g mask="url(#mask0_18968_17)">
<path d="M15.749 0.0315309C15.5983 -0.0304309 15.4239 0.00333835 15.3083 0.119184L8.34626 7.08141C7.88848 3.10247 4.50362 0.000889124 0.403435 0.000367999C0.296183 0.000367999 0.193517 0.043152 0.117534 0.118924C0.0416022 0.194643 -0.000976562 0.297512 -0.000976562 0.40476V15.5956C-0.000976562 15.6022 0.00152494 15.6082 0.00194186 15.6148C0.00277569 15.6343 0.0067365 15.6531 0.0104888 15.6725C0.0145537 15.6931 0.0184099 15.7131 0.0254976 15.7325C0.0275822 15.7383 0.0275308 15.7444 0.029876 15.7502C0.0347227 15.762 0.0432697 15.771 0.0490024 15.7821C0.0589042 15.8008 0.0687544 15.8191 0.0814183 15.8361C0.0930399 15.8516 0.106276 15.865 0.119878 15.8785C0.13374 15.8925 0.147394 15.9059 0.163237 15.9178C0.179966 15.9302 0.197685 15.9398 0.21603 15.9495C0.227339 15.9555 0.236615 15.9641 0.248602 15.9691C0.253448 15.9711 0.258608 15.9703 0.263507 15.9721C0.307857 15.9886 0.354291 16 0.403435 16H15.5939C15.8172 16 15.9983 15.8189 15.9983 15.5956V0.40476C15.9983 0.241127 15.8998 0.0938047 15.7488 0.0312176M15.1895 1.38088V7.5953H8.97482L15.1895 1.38088ZM15.1895 11.3933H8.4026V8.40424H15.1895V11.3933ZM0.807898 14.6193V8.40486H7.0226L3.91535 11.5121L0.807898 14.6193ZM0.807898 0.82041C4.45146 1.02344 7.3801 3.95211 7.58283 7.59556H0.807898V0.82041ZM4.48695 12.084L7.59414 8.97685V15.1913H1.37944L4.48695 12.084ZM8.40296 12.2022H15.1899V15.1913H8.40296V12.2022Z" fill="white"/>
</g>
</g>
<defs>
<clipPath id="clip0_18968_17">
<rect width="16" height="16" fill="white"/>
</clipPath>
</defs>
</svg>
