<svg xmlns="http://www.w3.org/2000/svg" width="16" height="16" fill="none" viewBox="0 0 16 16">
  <path fill="#00193D" d="M.354 0h8.099c.023.015.044.041.068.044.324.045.65.077.97.132.438.074.861.208 1.275.371a7.936 7.936 0 0 1 2.932 2.025c.494.55.915 1.15 1.252 1.81.279.546.487 1.121.62 1.721.07.31.119.627.169.941.022.14.023.284.037.426.003.03.022.06.033.09v.51c-.006.001-.018.001-.02.005-.111.273-.192.328-.484.328H8.874l.041.048 2.795 2.829c1.228 1.242 2.456 2.483 3.682 3.727.126.128.242.267.362.402.023.027.037.062.055.094v.139c-.006.008-.015.017-.019.026-.088.253-.198.332-.463.332H.495c-.032 0-.065 0-.097-.002a.417.417 0 0 1-.397-.41v-9.66L0 .462a.44.44 0 0 1 .225-.41C.265.029.311.017.355 0Zm7.948.823v.223c0 2.166 0 4.332.002 6.497 0 .018.037.052.057.052 2.174.003 4.348.002 6.522.002h.121c-.146-1.884-.848-3.495-2.2-4.799C11.544 1.584 10.043.934 8.302.823ZM7.51 8.402h-.07l-2.661.001c-.074 0-.175-.025-.214.013-.037.036-.011.14-.011.214v6.564h2.813c.142 0 .142 0 .142-.14V8.4Zm-3.764 6.792.005-.02-.003-2.48c0-1.393-.001-2.786.003-4.178 0-.1-.024-.116-.116-.115-.929.003-1.858.001-2.786.003-.017 0-.048.031-.048.048-.002 2.208 0 4.415-.005 6.623 0 .108.029.122.126.121.94-.004 1.88-.002 2.824-.002ZM.798 1.395v.131c0 1.98.001 3.961-.003 5.942 0 .11.024.133.133.132 1.937-.004 3.875-.003 5.813-.003h.185L.798 1.395Zm7.496 7.629c.002.049.008.122.008.196v5.89c0 .067.014.085.082.085 1.991-.002 3.982-.002 5.973-.002h.073l-.027.018-6.11-6.187ZM1.352.81l6.154 6.231V.811H1.352Z"/>
  <path fill="#00193D" d="M8.499 0 8.49.01 8.487 0H8.5Z"/>
</svg>
