<svg width="256" height="256" viewBox="0 0 256 256" fill="none" xmlns="http://www.w3.org/2000/svg">
<g clip-path="url(#clip0_12152_616)">
<rect width="256" height="256" rx="16" fill="white"/>
<path d="M83.9355 43.3008C102.41 43.3133 123.638 43.4281 134.525 43.8359L134.524 43.8369C138.05 43.9648 141.548 44.6609 144.814 45.2168L144.817 45.2178C149.512 46.0228 154.019 47.4439 158.382 49.165H158.383C162.854 50.9342 167.196 53.0502 171.31 55.6182L171.312 55.6201C177.968 59.7939 184.132 64.6578 189.46 70.6025L190.428 71.6963C195.226 77.1987 199.35 83.1764 202.692 89.7305H202.693C205.467 95.1627 207.583 100.867 209.014 106.794L209.291 107.982V107.983C210.026 111.264 210.544 114.604 211.052 117.854C211.181 118.662 211.246 119.46 211.297 120.208C211.336 120.786 211.366 121.317 211.407 121.842L211.453 122.366L211.454 122.374L211.455 122.381V122.382V122.386C211.455 122.388 211.456 122.393 211.456 122.397C211.457 122.407 211.458 122.421 211.46 122.439C211.463 122.476 211.468 122.53 211.474 122.598C211.485 122.734 211.501 122.929 211.519 123.168C211.554 123.645 211.599 124.299 211.635 125.005C211.703 126.326 211.759 128.107 211.579 129.112L211.577 129.121C211.258 130.855 210.594 132.277 209.173 133.106C207.914 133.841 206.346 133.909 204.871 133.909H142.119C146.165 138 150.212 142.091 154.26 146.182C159.097 151.07 163.934 155.96 168.769 160.849C178.323 170.511 187.885 180.17 197.435 189.836L206.98 199.505L206.984 199.51C208.316 200.87 209.548 202.21 210.839 203.793H210.84C211.47 204.557 211.629 205.49 211.671 206.12C211.715 206.788 211.645 207.413 211.587 207.802L211.588 207.803C211.34 209.511 210.638 210.887 209.295 211.744C208.061 212.531 206.547 212.7 205.094 212.7H51.1338C50.8304 212.7 50.4575 212.698 50.082 212.676V212.677C50.0775 212.677 50.0729 212.676 50.0684 212.676C50.0495 212.675 50.0306 212.675 50.0117 212.674V212.673C46.8822 212.555 44.2998 209.85 44.2998 206.724V49.8438C44.2999 47.4315 45.3116 45.4221 47.4678 44.1533C48.0592 43.8001 48.8617 43.568 49.0947 43.4824L49.374 43.3799L49.6719 43.3779L49.6816 45.0781C49.672 43.3782 49.6724 43.3779 49.6729 43.3779H49.7178C49.7482 43.3778 49.7936 43.3773 49.8535 43.377C49.9736 43.3763 50.1522 43.3752 50.3857 43.374C50.8533 43.3716 51.5428 43.3683 52.4268 43.3643C54.1946 43.3561 56.7441 43.3453 59.8711 43.335C66.1255 43.3142 74.6914 43.2945 83.9355 43.3008ZM83.2402 133.889C74.1648 133.918 65.0701 133.901 56.0039 133.919C55.9837 156.263 56.0024 178.618 55.9492 200.957C65.032 200.917 74.1174 200.933 83.2285 200.936C83.2274 197.146 83.2246 193.359 83.2197 189.57C83.2142 185.286 83.208 181 83.208 176.711C83.208 162.44 83.1977 148.164 83.2402 133.889ZM133.889 142.874C133.889 162.227 133.899 181.592 133.889 200.946C153.019 200.926 172.148 200.926 191.277 200.926C172.117 181.542 152.958 162.167 133.889 142.874ZM94.9209 133.874C94.9382 134.076 94.958 134.325 94.958 134.57V200.937H122.239V133.898C113.362 133.898 104.475 133.898 95.5996 133.909H95.5977C95.3585 133.909 95.1172 133.891 94.9209 133.874ZM55.9824 63.6797C55.9833 83.1822 55.9921 102.697 55.9609 122.201C75.2497 122.159 94.5388 122.167 113.824 122.168L55.9824 63.6797ZM133.877 55.9248C133.877 78.0029 133.877 100.08 133.898 122.146C155.895 122.167 177.902 122.168 199.899 122.157C198.136 104.088 191.235 88.6127 178.372 75.9336L177.734 75.3125C165.402 63.4315 150.792 56.8818 133.877 55.4385V55.9248ZM122.217 113.938V55.1631H64.1084C83.5216 74.8017 102.822 94.3181 122.217 113.938Z" fill="#041834" stroke="#041834" stroke-width="3.4"/>
</g>
<defs>
<clipPath id="clip0_12152_616">
<rect width="256" height="256" rx="16" fill="white"/>
</clipPath>
</defs>
</svg>
