<svg width="320" height="33" viewBox="0 0 320 33" fill="none" xmlns="http://www.w3.org/2000/svg">
<path d="M314.739 13.529C314.221 13.529 313.78 13.648 313.416 13.886C313.066 14.124 312.772 14.425 312.534 14.789C312.31 15.139 312.135 15.531 312.009 15.965C311.897 16.385 311.827 16.784 311.799 17.162C312.233 17.176 312.681 17.19 313.143 17.204C313.619 17.218 314.081 17.225 314.529 17.225C314.991 17.225 315.46 17.218 315.936 17.204C316.412 17.19 316.874 17.176 317.322 17.162C317.322 16.784 317.287 16.385 317.217 15.965C317.161 15.545 317.035 15.153 316.839 14.789C316.657 14.425 316.398 14.124 316.062 13.886C315.726 13.648 315.285 13.529 314.739 13.529ZM309.888 18.38C309.888 16.658 310.294 15.307 311.106 14.327C311.932 13.347 313.129 12.857 314.697 12.857C315.439 12.857 316.076 12.976 316.608 13.214C317.154 13.438 317.609 13.746 317.973 14.138C318.337 14.516 318.603 14.964 318.771 15.482C318.953 16 319.044 16.553 319.044 17.141C319.044 17.281 319.037 17.421 319.023 17.561C319.023 17.687 319.016 17.82 319.002 17.96C318.246 17.946 317.497 17.932 316.755 17.918C316.013 17.904 315.264 17.897 314.508 17.897C314.046 17.897 313.584 17.904 313.122 17.918C312.674 17.932 312.219 17.946 311.757 17.96C311.743 18.03 311.736 18.135 311.736 18.275V18.548C311.736 19.094 311.813 19.605 311.967 20.081C312.135 20.557 312.373 20.97 312.681 21.32C312.989 21.656 313.367 21.929 313.815 22.139C314.263 22.335 314.781 22.433 315.369 22.433C315.649 22.433 315.936 22.398 316.23 22.328C316.524 22.244 316.811 22.139 317.091 22.013C317.371 21.873 317.63 21.712 317.868 21.53C318.12 21.348 318.337 21.152 318.519 20.942L318.624 21.005L318.498 22.034C318.078 22.37 317.553 22.657 316.923 22.895C316.307 23.133 315.663 23.252 314.991 23.252C314.235 23.252 313.542 23.14 312.912 22.916C312.296 22.678 311.757 22.342 311.295 21.908C310.847 21.46 310.497 20.935 310.245 20.333C310.007 19.731 309.888 19.08 309.888 18.38Z" fill="black"/>
<path d="M305.926 17.141C305.926 16.091 305.723 15.3 305.317 14.768C304.911 14.222 304.351 13.949 303.637 13.949C302.657 13.949 301.936 14.25 301.474 14.852C301.026 15.454 300.802 16.301 300.802 17.393V19.178C300.802 19.808 300.809 20.473 300.823 21.173C300.851 21.859 300.9 22.482 300.97 23.042C300.648 23.014 300.333 23 300.025 23C299.717 23 299.402 23.014 299.08 23.042C299.15 22.482 299.192 21.859 299.206 21.173C299.234 20.473 299.248 19.808 299.248 19.178V16.994C299.248 16.364 299.234 15.706 299.206 15.02C299.192 14.32 299.15 13.669 299.08 13.067C299.472 13.137 299.787 13.172 300.025 13.172C300.137 13.172 300.256 13.165 300.382 13.151C300.522 13.123 300.683 13.095 300.865 13.067C300.823 13.627 300.802 14.187 300.802 14.747H300.844C301.236 14.145 301.705 13.683 302.251 13.361C302.797 13.025 303.448 12.857 304.204 12.857C304.596 12.857 304.988 12.913 305.38 13.025C305.786 13.137 306.15 13.333 306.472 13.613C306.794 13.879 307.053 14.25 307.249 14.726C307.459 15.188 307.564 15.783 307.564 16.511C307.564 17.113 307.55 17.736 307.522 18.38C307.494 19.01 307.48 19.682 307.48 20.396V21.761C307.48 21.985 307.48 22.209 307.48 22.433C307.494 22.643 307.508 22.846 307.522 23.042C307.242 23.014 306.948 23 306.64 23C306.346 23 306.059 23.014 305.779 23.042C305.807 22.314 305.835 21.565 305.863 20.795C305.905 20.025 305.926 19.234 305.926 18.422V17.141Z" fill="black"/>
<path d="M296.896 14.789C296.826 14.705 296.686 14.628 296.476 14.558C296.28 14.488 296.077 14.453 295.867 14.453C295.531 14.453 295.23 14.53 294.964 14.684C294.698 14.838 294.474 15.048 294.292 15.314C294.11 15.566 293.97 15.874 293.872 16.238C293.774 16.588 293.725 16.966 293.725 17.372V19.682C293.725 20.62 293.725 21.341 293.725 21.845C293.739 22.335 293.767 22.734 293.809 23.042C293.529 23.014 293.249 23 292.969 23C292.661 23 292.367 23.014 292.087 23.042C292.129 22.566 292.15 21.922 292.15 21.11C292.164 20.284 292.171 19.276 292.171 18.086V17.414C292.171 16.868 292.164 16.238 292.15 15.524C292.15 14.81 292.129 13.991 292.087 13.067C292.241 13.095 292.388 13.123 292.528 13.151C292.668 13.165 292.815 13.172 292.969 13.172C293.095 13.172 293.228 13.165 293.368 13.151C293.508 13.123 293.655 13.095 293.809 13.067C293.753 13.571 293.718 13.97 293.704 14.264C293.704 14.558 293.704 14.838 293.704 15.104L293.746 15.125C294.572 13.613 295.496 12.857 296.518 12.857C296.644 12.857 296.749 12.864 296.833 12.878C296.931 12.892 297.05 12.927 297.19 12.983C297.12 13.151 297.078 13.41 297.064 13.76C297.05 14.096 297.043 14.404 297.043 14.684L296.896 14.789Z" fill="black"/>
<path d="M285.577 13.529C285.059 13.529 284.618 13.648 284.254 13.886C283.904 14.124 283.61 14.425 283.372 14.789C283.148 15.139 282.973 15.531 282.847 15.965C282.735 16.385 282.665 16.784 282.637 17.162C283.071 17.176 283.519 17.19 283.981 17.204C284.457 17.218 284.919 17.225 285.367 17.225C285.829 17.225 286.298 17.218 286.774 17.204C287.25 17.19 287.712 17.176 288.16 17.162C288.16 16.784 288.125 16.385 288.055 15.965C287.999 15.545 287.873 15.153 287.677 14.789C287.495 14.425 287.236 14.124 286.9 13.886C286.564 13.648 286.123 13.529 285.577 13.529ZM280.726 18.38C280.726 16.658 281.132 15.307 281.944 14.327C282.77 13.347 283.967 12.857 285.535 12.857C286.277 12.857 286.914 12.976 287.446 13.214C287.992 13.438 288.447 13.746 288.811 14.138C289.175 14.516 289.441 14.964 289.609 15.482C289.791 16 289.882 16.553 289.882 17.141C289.882 17.281 289.875 17.421 289.861 17.561C289.861 17.687 289.854 17.82 289.84 17.96C289.084 17.946 288.335 17.932 287.593 17.918C286.851 17.904 286.102 17.897 285.346 17.897C284.884 17.897 284.422 17.904 283.96 17.918C283.512 17.932 283.057 17.946 282.595 17.96C282.581 18.03 282.574 18.135 282.574 18.275V18.548C282.574 19.094 282.651 19.605 282.805 20.081C282.973 20.557 283.211 20.97 283.519 21.32C283.827 21.656 284.205 21.929 284.653 22.139C285.101 22.335 285.619 22.433 286.207 22.433C286.487 22.433 286.774 22.398 287.068 22.328C287.362 22.244 287.649 22.139 287.929 22.013C288.209 21.873 288.468 21.712 288.706 21.53C288.958 21.348 289.175 21.152 289.357 20.942L289.462 21.005L289.336 22.034C288.916 22.37 288.391 22.657 287.761 22.895C287.145 23.133 286.501 23.252 285.829 23.252C285.073 23.252 284.38 23.14 283.75 22.916C283.134 22.678 282.595 22.342 282.133 21.908C281.685 21.46 281.335 20.935 281.083 20.333C280.845 19.731 280.726 19.08 280.726 18.38Z" fill="black"/>
<path d="M271.052 18.275C271.052 19.115 271.136 19.808 271.304 20.354C271.486 20.9 271.71 21.341 271.976 21.677C272.256 21.999 272.571 22.223 272.921 22.349C273.271 22.475 273.614 22.538 273.95 22.538C274.496 22.538 274.965 22.405 275.357 22.139C275.749 21.859 276.071 21.502 276.323 21.068C276.589 20.62 276.778 20.116 276.89 19.556C277.016 18.996 277.079 18.436 277.079 17.876C277.079 16.532 276.82 15.51 276.302 14.81C275.784 14.096 275.021 13.739 274.013 13.739C273.509 13.739 273.068 13.858 272.69 14.096C272.326 14.32 272.018 14.642 271.766 15.062C271.528 15.468 271.346 15.951 271.22 16.511C271.108 17.057 271.052 17.645 271.052 18.275ZM277.016 21.047C276.904 21.271 276.75 21.516 276.554 21.782C276.372 22.034 276.134 22.272 275.84 22.496C275.56 22.72 275.224 22.902 274.832 23.042C274.44 23.182 273.985 23.252 273.467 23.252C272.935 23.252 272.41 23.161 271.892 22.979C271.388 22.797 270.933 22.503 270.527 22.097C270.135 21.677 269.813 21.145 269.561 20.501C269.323 19.843 269.204 19.059 269.204 18.149C269.204 17.253 269.337 16.476 269.603 15.818C269.869 15.16 270.212 14.614 270.632 14.18C271.066 13.732 271.549 13.403 272.081 13.193C272.627 12.969 273.173 12.857 273.719 12.857C275.273 12.857 276.351 13.557 276.953 14.957H276.995V12.899C276.995 12.367 276.988 11.835 276.974 11.303C276.974 10.757 276.967 10.239 276.953 9.74901C276.953 9.25901 276.946 8.79701 276.932 8.36301C276.932 7.92901 276.925 7.54401 276.911 7.20801C277.079 7.23601 277.24 7.26401 277.394 7.29201C277.548 7.30601 277.702 7.31301 277.856 7.31301C278.01 7.31301 278.157 7.30601 278.297 7.29201C278.451 7.26401 278.619 7.23601 278.801 7.20801C278.759 7.65601 278.724 8.30701 278.696 9.16101C278.668 10.001 278.64 10.932 278.612 11.954C278.598 12.976 278.584 14.026 278.57 15.104C278.556 16.182 278.549 17.169 278.549 18.065C278.549 19.031 278.556 19.899 278.57 20.669C278.584 21.439 278.598 22.23 278.612 23.042C278.332 23.014 278.059 23 277.793 23C277.541 23 277.275 23.014 276.995 23.042L277.058 21.047H277.016Z" fill="black"/>
<path d="M259.236 18.086C259.236 18.674 259.285 19.241 259.383 19.787C259.495 20.333 259.677 20.823 259.929 21.257C260.181 21.677 260.517 22.013 260.937 22.265C261.357 22.517 261.875 22.643 262.491 22.643C263.107 22.643 263.625 22.517 264.045 22.265C264.465 22.013 264.801 21.677 265.053 21.257C265.305 20.823 265.48 20.333 265.578 19.787C265.69 19.241 265.746 18.674 265.746 18.086C265.746 17.498 265.69 16.931 265.578 16.385C265.48 15.839 265.305 15.356 265.053 14.936C264.801 14.502 264.465 14.159 264.045 13.907C263.625 13.655 263.107 13.529 262.491 13.529C261.875 13.529 261.357 13.655 260.937 13.907C260.517 14.159 260.181 14.502 259.929 14.936C259.677 15.356 259.495 15.839 259.383 16.385C259.285 16.931 259.236 17.498 259.236 18.086ZM257.388 18.086C257.388 17.134 257.535 16.329 257.829 15.671C258.137 14.999 258.536 14.46 259.026 14.054C259.516 13.634 260.062 13.333 260.664 13.151C261.28 12.955 261.889 12.857 262.491 12.857C263.107 12.857 263.716 12.955 264.318 13.151C264.92 13.333 265.466 13.634 265.956 14.054C266.446 14.46 266.838 14.999 267.132 15.671C267.44 16.329 267.594 17.134 267.594 18.086C267.594 19.038 267.44 19.85 267.132 20.522C266.838 21.18 266.446 21.719 265.956 22.139C265.466 22.545 264.92 22.832 264.318 23C263.716 23.168 263.107 23.252 262.491 23.252C261.889 23.252 261.28 23.168 260.664 23C260.062 22.832 259.516 22.545 259.026 22.139C258.536 21.719 258.137 21.18 257.829 20.522C257.535 19.85 257.388 19.038 257.388 18.086Z" fill="black"/>
<path d="M241.393 8.34198C242.359 10.33 243.332 12.262 244.312 14.138C245.306 16.014 246.342 17.939 247.42 19.913C247.56 19.647 247.763 19.269 248.029 18.779C248.295 18.275 248.603 17.701 248.953 17.057C249.303 16.413 249.674 15.72 250.066 14.978C250.472 14.222 250.878 13.459 251.284 12.689C251.704 11.919 252.117 11.163 252.523 10.421C252.929 9.67898 253.307 8.98598 253.657 8.34198H253.93C254.084 9.68598 254.224 10.988 254.35 12.248C254.49 13.494 254.63 14.726 254.77 15.944C254.91 17.148 255.05 18.345 255.19 19.535C255.33 20.711 255.484 21.88 255.652 23.042C255.484 23.014 255.316 23 255.148 23C254.994 23 254.833 23 254.665 23C254.497 23 254.329 23 254.161 23C254.007 23 253.846 23.014 253.678 23.042C253.524 21.18 253.37 19.374 253.216 17.624C253.062 15.874 252.873 14.089 252.649 12.269H252.607C251.641 14.033 250.689 15.79 249.751 17.54C248.827 19.276 247.945 21.096 247.105 23H246.916C246.076 21.236 245.194 19.472 244.27 17.708C243.36 15.93 242.443 14.117 241.519 12.269H241.477C241.379 13.137 241.267 14.082 241.141 15.104C241.029 16.112 240.924 17.113 240.826 18.107C240.728 19.087 240.644 20.018 240.574 20.9C240.504 21.768 240.469 22.482 240.469 23.042C240.245 23.014 240 23 239.734 23C239.468 23 239.223 23.014 238.999 23.042C239.181 21.908 239.37 20.711 239.566 19.451C239.762 18.191 239.951 16.924 240.133 15.65C240.315 14.376 240.483 13.123 240.637 11.891C240.791 10.645 240.924 9.46198 241.036 8.34198H241.393Z" fill="black"/>
<path d="M226.308 23.063C226.154 22.685 225.951 22.195 225.699 21.593C225.461 20.991 225.202 20.361 224.922 19.703C224.642 19.031 224.355 18.352 224.061 17.666C223.767 16.966 223.487 16.315 223.221 15.713C222.969 15.097 222.745 14.558 222.549 14.096C222.353 13.634 222.206 13.291 222.108 13.067C222.29 13.095 222.458 13.123 222.612 13.151C222.766 13.165 222.92 13.172 223.074 13.172C223.228 13.172 223.382 13.165 223.536 13.151C223.69 13.123 223.858 13.095 224.04 13.067C224.474 14.411 224.957 15.741 225.489 17.057C226.021 18.373 226.581 19.731 227.169 21.131C227.757 19.899 228.317 18.583 228.849 17.183C229.395 15.783 229.878 14.411 230.298 13.067C230.578 13.137 230.809 13.172 230.991 13.172C231.173 13.172 231.404 13.137 231.684 13.067C231.586 13.263 231.425 13.599 231.201 14.075C230.991 14.537 230.732 15.097 230.424 15.755C230.13 16.399 229.801 17.12 229.437 17.918C229.087 18.702 228.723 19.514 228.345 20.354C227.981 21.18 227.617 22.006 227.253 22.832C226.889 23.644 226.553 24.414 226.245 25.142C225.937 25.884 225.664 26.549 225.426 27.137C225.202 27.739 225.034 28.215 224.922 28.565C224.642 28.495 224.404 28.46 224.208 28.46C224.012 28.46 223.774 28.495 223.494 28.565C224.6 26.731 225.538 24.897 226.308 23.063Z" fill="black"/>
<path d="M219.293 17.729C219.293 17.085 219.209 16.518 219.041 16.028C218.887 15.524 218.677 15.104 218.411 14.768C218.159 14.432 217.858 14.18 217.508 14.012C217.172 13.83 216.822 13.739 216.458 13.739C216.024 13.739 215.604 13.823 215.198 13.991C214.806 14.145 214.463 14.411 214.169 14.789C213.875 15.153 213.637 15.636 213.455 16.238C213.287 16.826 213.203 17.554 213.203 18.422C213.203 21.236 214.225 22.643 216.269 22.643C216.703 22.643 217.102 22.531 217.466 22.307C217.83 22.069 218.145 21.733 218.411 21.299C218.691 20.865 218.908 20.347 219.062 19.745C219.216 19.143 219.293 18.471 219.293 17.729ZM221.141 17.792C221.141 18.604 221.015 19.346 220.763 20.018C220.525 20.69 220.189 21.271 219.755 21.761C219.335 22.237 218.831 22.608 218.243 22.874C217.669 23.126 217.046 23.252 216.374 23.252C215.702 23.252 215.093 23.112 214.547 22.832C214.015 22.538 213.609 22.188 213.329 21.782C212.825 22.188 212.356 22.594 211.922 23H211.544C211.572 22.664 211.593 22.258 211.607 21.782C211.635 21.306 211.656 20.802 211.67 20.27C211.684 19.724 211.691 19.171 211.691 18.611C211.705 18.051 211.712 17.533 211.712 17.057V13.256C211.712 12.78 211.705 12.262 211.691 11.702C211.691 11.142 211.684 10.589 211.67 10.043C211.656 9.49701 211.635 8.97901 211.607 8.48901C211.593 7.98501 211.572 7.55801 211.544 7.20801C211.936 7.27801 212.251 7.31301 212.489 7.31301C212.643 7.31301 212.804 7.30601 212.972 7.29201C213.14 7.26401 213.322 7.23601 213.518 7.20801C213.476 7.48801 213.441 7.93601 213.413 8.55201C213.385 9.15401 213.364 9.83301 213.35 10.589C213.336 11.331 213.322 12.101 213.308 12.899C213.294 13.683 213.28 14.397 213.266 15.041H213.308C213.784 14.285 214.309 13.732 214.883 13.382C215.457 13.032 216.122 12.857 216.878 12.857C217.606 12.857 218.236 12.997 218.768 13.277C219.3 13.543 219.741 13.9 220.091 14.348C220.441 14.796 220.7 15.321 220.868 15.923C221.05 16.511 221.141 17.134 221.141 17.792Z" fill="black"/>
<path d="M12.3279 25.8183C10.5996 25.8183 8.97828 25.5124 7.46406 24.8853C5.94983 24.2735 4.64974 23.4017 3.56378 22.2698C2.47782 21.138 1.606 19.7767 0.963598 18.1707C0.321199 16.5647 0 14.7905 0 12.848C0 10.9055 0.321199 9.05476 0.978893 7.44876C1.63659 5.84276 2.52371 4.49679 3.64026 3.41083C4.75681 2.32487 6.0569 1.46834 7.55583 0.887121C9.05476 0.290609 10.6455 0 12.3279 0C14.0104 0 15.5705 0.290609 17.0694 0.887121C18.5684 1.48363 19.8838 2.32487 21.0003 3.41083C22.1322 4.49679 23.0193 5.85806 23.677 7.44876C24.3347 9.05476 24.6559 10.8443 24.6559 12.848C24.6559 14.8516 24.3347 16.5647 23.6923 18.1707C23.0499 19.7767 22.178 21.138 21.0768 22.2698C19.9755 23.4017 18.6601 24.2735 17.1612 24.8853C15.647 25.4971 14.041 25.8183 12.3279 25.8183ZM12.3279 24.3194C13.7351 24.3194 14.9893 24.0441 16.0905 23.4934C17.1918 22.9428 18.1248 22.178 18.8896 21.1838C19.6543 20.1897 20.2355 18.9813 20.6332 17.5742C21.0309 16.167 21.245 14.5916 21.245 12.848C21.245 9.36066 20.4497 6.59223 18.859 4.54267C17.2683 2.49312 15.0964 1.48363 12.3432 1.48363C9.59009 1.48363 7.38758 2.50841 5.81218 4.54267C4.23677 6.59223 3.44142 9.34536 3.44142 12.848C3.44142 16.3506 3.64026 16.1517 4.02264 17.5742C4.42031 18.9813 4.98623 20.1897 5.75099 21.1838C6.51575 22.178 7.44876 22.9581 8.55002 23.4934C9.65127 24.0441 10.9208 24.3194 12.3432 24.3194H12.3279ZM36.479 25.8183C34.9801 25.8183 33.7106 25.4665 32.6858 24.7476C31.6458 24.0288 30.881 23.1875 30.3457 22.178V32.227H27.5619V7.61701H30.2692V11.0431C30.7739 9.97247 31.5387 9.07005 32.5788 8.33588C33.6188 7.60171 34.9342 7.23463 36.4943 7.23463C38.0545 7.23463 38.6969 7.43347 39.6605 7.84644C40.6393 8.24411 41.4806 8.84062 42.1842 9.62068C42.903 10.4007 43.4537 11.3643 43.8513 12.5115C44.249 13.6586 44.4631 14.9587 44.4631 16.427C44.4631 17.8954 44.249 19.2567 43.836 20.4344C43.4231 21.6121 42.8571 22.591 42.1383 23.3864C41.4194 24.1817 40.5782 24.7935 39.584 25.2065C38.6051 25.6195 37.5497 25.8336 36.4332 25.8336L36.479 25.8183ZM35.9437 24.3194C37.718 24.3194 39.0792 23.6158 39.9816 22.1933C40.8994 20.7862 41.3582 18.8437 41.3582 16.3965C41.3582 13.9492 40.8994 12.1444 39.9664 10.7678C39.0333 9.39125 37.7027 8.70297 35.9437 8.70297C34.1848 8.70297 32.9459 9.42184 31.8599 10.8443C30.7739 12.2667 30.2386 14.1175 30.2386 16.3965C30.2386 18.6754 30.7892 20.6791 31.8905 22.1322C32.9917 23.5852 34.3377 24.3041 35.9284 24.3041L35.9437 24.3194ZM63.1998 20.0826C62.8633 21.8415 62.022 23.2334 60.6455 24.2735C59.2842 25.3136 57.5864 25.8183 55.5675 25.8183C53.5485 25.8183 53.1814 25.6042 52.1107 25.1759C51.0401 24.7476 50.1224 24.1358 49.327 23.3252C48.547 22.5145 47.9352 21.5356 47.4916 20.3732C47.048 19.2108 46.8339 17.8954 46.8339 16.4117C46.8339 14.9281 47.0633 13.628 47.5222 12.4809C47.981 11.3337 48.6081 10.3701 49.3729 9.59009C50.1377 8.82533 51.0248 8.22882 52.0037 7.83114C52.9826 7.43347 53.9921 7.21933 55.0168 7.21933C56.0416 7.21933 57.1582 7.40287 58.1523 7.76996C59.1465 8.13704 60.0337 8.67238 60.7831 9.39125C61.5479 10.1101 62.1444 10.9972 62.588 12.0679C63.0315 13.1386 63.2456 14.3775 63.2456 15.7693V16.3353H49.9541V16.4117C49.9541 18.7366 50.4589 20.6485 51.453 22.1322C52.4472 23.6158 53.9156 24.3652 55.8428 24.3652C57.77 24.3652 58.5959 23.9676 59.6054 23.1722C60.6149 22.3769 61.2573 21.3521 61.5173 20.0979H63.1845L63.1998 20.0826ZM55.0321 8.58061C53.5791 8.58061 52.4166 9.10064 51.5295 10.1407C50.6424 11.1808 50.1377 12.7715 50.0153 14.9128H60.0337C59.9878 12.848 59.5595 11.2726 58.7336 10.1866C57.9076 9.10064 56.684 8.56531 55.0474 8.56531L55.0321 8.58061ZM69.4861 17.1612V25.4665H66.7024V7.61701H69.4096V11.2879C69.8532 10.1254 70.6026 9.16182 71.6121 8.38177C72.6369 7.61701 73.8605 7.21933 75.283 7.21933C76.7054 7.21933 78.5714 7.75466 79.8256 8.81003C81.0798 9.8654 81.6917 11.7314 81.6917 14.4234V25.4665H78.9079V14.2092C78.9079 12.2209 78.5256 10.7984 77.7455 9.97247C76.9807 9.14653 75.9865 8.71826 74.7629 8.71826C73.5393 8.71826 72.0404 9.43714 71.0003 10.8749C69.9602 12.3126 69.4555 14.4081 69.4555 17.1612H69.4861ZM93.5301 14.1022H88.7274V25.4665H85.7755V0.520036H93.5454C96.8645 0.520036 99.3576 1.08596 101.025 2.2331C102.692 3.38024 103.518 5.03212 103.518 7.21933C103.518 9.40655 103.35 8.88651 103.013 9.60538C102.677 10.3243 102.233 10.9361 101.682 11.4408C101.117 11.9455 100.459 12.3738 99.7094 12.695C98.9446 13.0162 98.1493 13.2303 97.2928 13.3221V13.3986C98.547 13.5362 99.6482 14.0257 100.581 14.8669C101.514 15.6929 102.218 17.0236 102.661 18.859L104.298 25.4818H101.239L99.6329 18.7519C99.1741 16.8553 98.4399 15.6011 97.3845 15.0046C96.3444 14.4081 95.0597 14.1175 93.5301 14.1175V14.1022ZM88.7274 2.09544V12.5268H93.469C95.9315 12.5268 97.6904 12.022 98.7458 11.0278C99.7859 10.0336 100.306 8.77944 100.306 7.28051C100.306 5.78158 99.8012 4.51208 98.7917 3.53319C97.7822 2.5543 96.0233 2.06485 93.4995 2.06485H88.7274V2.09544ZM122.499 20.0826C122.163 21.8415 121.322 23.2334 119.945 24.2735C118.584 25.3136 116.886 25.8183 114.867 25.8183C112.848 25.8183 112.481 25.6042 111.41 25.1759C110.34 24.7476 109.422 24.1358 108.626 23.3252C107.846 22.5145 107.235 21.5356 106.791 20.3732C106.348 19.2108 106.133 17.8954 106.133 16.4117C106.133 14.9281 106.363 13.628 106.822 12.4809C107.281 11.3337 107.908 10.3701 108.672 9.59009C109.437 8.82533 110.324 8.22882 111.303 7.83114C112.282 7.43347 113.292 7.21933 114.316 7.21933C115.341 7.21933 116.458 7.40287 117.452 7.76996C118.446 8.13704 119.333 8.67238 120.083 9.39125C120.847 10.1101 121.444 10.9972 121.887 12.0679C122.331 13.1386 122.545 14.3775 122.545 15.7693V16.3353H109.254V16.4117C109.254 18.7366 109.758 20.6485 110.753 22.1322C111.747 23.6158 113.215 24.3652 115.142 24.3652C117.069 24.3652 117.895 23.9676 118.905 23.1722C119.914 22.3769 120.557 21.3521 120.817 20.0979H122.484L122.499 20.0826ZM114.332 8.58061C112.879 8.58061 111.716 9.10064 110.829 10.1407C109.942 11.1808 109.437 12.7715 109.315 14.9128H119.333C119.287 12.848 118.859 11.2726 118.033 10.1866C117.207 9.10064 115.983 8.56531 114.347 8.56531L114.332 8.58061ZM141.19 25.4665L136.204 11.1502L131.508 25.4665H129.413L123.142 7.61701H126.032L131.049 21.9333L135.714 7.61701H137.81L142.827 22.0098L147.492 7.61701H149.205L143.285 25.4665H141.19ZM154.252 15.127V25.4512H151.468V7.60171H154.176V11.1655C154.267 10.8596 154.39 10.5537 154.543 10.2631C154.696 9.97247 154.879 9.68186 155.093 9.42184C155.598 8.81003 156.179 8.33588 156.837 8.01468C157.495 7.69348 158.244 7.54053 159.085 7.54053C159.927 7.54053 159.422 7.54053 159.59 7.55583C159.758 7.55583 159.911 7.58642 160.049 7.60171V9.98776C159.804 9.95717 159.544 9.94188 159.254 9.89599C158.963 9.8654 158.642 9.85011 158.305 9.85011C157.801 9.85011 157.326 9.92658 156.852 10.0795C156.378 10.2325 155.95 10.5078 155.552 10.9055C155.154 11.3031 154.849 11.8385 154.604 12.5268C154.359 13.2151 154.252 14.0869 154.252 15.127ZM162.251 3.5179V0.351789H165.31V3.5179H162.251ZM162.389 25.4665V7.61701H165.173V25.4665H162.389ZM175.023 25.4971C173.57 25.4971 172.499 25.2218 171.796 24.6712C171.092 24.1205 170.74 23.0346 170.74 21.398V9.03946H167.498V7.61701H170.74V4.34384L173.417 2.46253H173.524V7.6323H178.373V9.05476H173.524V21.4592C173.524 22.4992 173.692 23.2028 174.029 23.5546C174.365 23.9064 174.992 24.0899 175.91 24.0899H178.373V25.4512C177.99 25.4818 177.516 25.4971 176.965 25.4971C176.4 25.4971 175.757 25.5124 175.023 25.5124V25.4971ZM195.09 20.0826C194.754 21.8415 193.913 23.2334 192.536 24.2735C191.175 25.3136 189.477 25.8183 187.458 25.8183C185.439 25.8183 185.072 25.6042 184.001 25.1759C182.931 24.7476 182.013 24.1358 181.218 23.3252C180.437 22.5145 179.826 21.5356 179.382 20.3732C178.939 19.2108 178.724 17.8954 178.724 16.4117C178.724 14.9281 178.954 13.628 179.413 12.4809C179.872 11.3337 180.499 10.3701 181.263 9.59009C182.028 8.82533 182.915 8.22882 183.894 7.83114C184.873 7.43347 185.883 7.21933 186.907 7.21933C187.932 7.21933 189.049 7.40287 190.043 7.76996C191.037 8.13704 191.924 8.67238 192.674 9.39125C193.438 10.1101 194.035 10.9972 194.478 12.0679C194.922 13.1386 195.136 14.3775 195.136 15.7693V16.3353H181.845V16.4117C181.845 18.7366 182.349 20.6485 183.344 22.1322C184.338 23.6158 185.806 24.3652 187.733 24.3652C189.66 24.3652 190.486 23.9676 191.496 23.1722C192.505 22.3769 193.148 21.3521 193.408 20.0979H195.075L195.09 20.0826ZM186.938 8.58061C185.485 8.58061 184.322 9.10064 183.435 10.1407C182.548 11.1808 182.043 12.7715 181.921 14.9128H191.939C191.894 12.848 191.465 11.2726 190.639 10.1866C189.813 9.10064 188.59 8.56531 186.953 8.56531L186.938 8.58061Z" fill="black"/>
<path d="M200 9.14653C200 10.1713 199.174 10.9973 198.149 10.9973C197.124 10.9973 196.283 10.1713 196.283 9.14653C196.283 8.12175 197.109 7.28052 198.149 7.28052C199.189 7.28052 200 8.12175 200 9.14653ZM199.633 9.14653C199.633 8.29 198.975 7.61701 198.149 7.61701C197.323 7.61701 196.65 8.29 196.65 9.14653C196.65 10.0031 197.308 10.6608 198.149 10.6608C198.99 10.6608 199.633 9.98777 199.633 9.14653ZM198.945 8.79474C198.945 9.08535 198.73 9.29948 198.363 9.33007L198.945 10.0337H198.593L198.027 9.33007H197.782V10.0337H197.476V8.24412H198.256C198.685 8.24412 198.929 8.45825 198.929 8.79474H198.945ZM197.797 9.07006H198.272C198.501 9.07006 198.654 8.97828 198.654 8.77945C198.654 8.58061 198.501 8.48884 198.272 8.48884H197.797V9.05476V9.07006Z" fill="black"/>
</svg>
