<?xml version="1.0" encoding="UTF-8"?>
<svg xmlns="http://www.w3.org/2000/svg" version="1.1" viewBox="0 0 1380.9 430">
  <defs>
    <style>
      .cls-1 {
        isolation: isolate;
      }

      .cls-2 {
        display: none;
      }
    </style>
  </defs>
  <!-- Generator: Adobe Illustrator 28.7.1, SVG Export Plug-In . SVG Version: 1.2.0 Build 142)  -->
  <g>
    <g id="Layer_1">
      <g id="BG" class="cls-2">
        <rect x="-33.5" y="827.7" width="1440" height="318"/>
      </g>
      <g id="Layer_1-2" data-name="Layer_1">
        <path d="M109.5,213.2c-11.3,0-21.9-2-31.8-6.1-9.9-4-18.4-9.7-25.5-17.1-7.1-7.4-12.8-16.3-17-26.8s-6.3-22.1-6.3-34.8,2.1-24.8,6.4-35.3c4.3-10.5,10.1-19.3,17.4-26.4,7.3-7.1,15.8-12.7,25.6-16.5,9.8-3.9,20.2-5.8,31.2-5.8s21.2,1.9,31,5.8c9.8,3.9,18.4,9.4,25.7,16.5,7.4,7.1,13.2,16,17.5,26.4,4.3,10.5,6.4,22.2,6.4,35.3s-2.1,24.3-6.3,34.8-9.9,19.4-17.1,26.8c-7.2,7.4-15.8,13.1-25.6,17.1-9.9,4-20.4,6.1-31.6,6.1h0ZM109.5,203.4c9.2,0,17.4-1.8,24.6-5.4,7.2-3.6,13.3-8.6,18.3-15.1s8.8-14.4,11.4-23.6c2.6-9.2,4-19.5,4-30.9,0-22.8-5.2-40.9-15.6-54.3-10.4-13.4-24.6-20-42.6-20s-32.4,6.7-42.7,20c-10.3,13.4-15.5,31.4-15.5,54.3s1.3,21.6,3.8,30.9c2.6,9.2,6.3,17.1,11.3,23.6s11.1,11.6,18.3,15.1c7.2,3.6,15.5,5.4,24.8,5.4h0ZM267.4,213.2c-9.8,0-18.1-2.3-24.8-7-6.8-4.7-11.8-10.2-15.3-16.8v65.7h-18.2V94.2h17.7v22.4c3.3-7,8.3-12.9,15.1-17.7s15.4-7.2,25.6-7.2,14.4,1.3,20.7,4c6.4,2.6,11.9,6.5,16.5,11.6,4.7,5.1,8.3,11.4,10.9,18.9s4,16,4,25.6-1.4,18.5-4.1,26.2-6.4,14.1-11.1,19.3-10.2,9.2-16.7,11.9c-6.4,2.7-13.3,4.1-20.6,4.1h.3ZM263.9,203.4c11.6,0,20.5-4.6,26.4-13.9,6-9.2,9-21.9,9-37.9s-3-27.8-9.1-36.8-14.8-13.5-26.3-13.5-19.6,4.7-26.7,14c-7.1,9.3-10.6,21.4-10.6,36.3s3.6,28,10.8,37.5,16,14.2,26.4,14.2h.1ZM442.1,175.7c-2.2,11.5-7.7,20.6-16.7,27.4-8.9,6.8-20,10.1-33.2,10.1s-15.6-1.4-22.6-4.2-13-6.8-18.2-12.1c-5.1-5.3-9.1-11.7-12-19.3s-4.3-16.2-4.3-25.9,1.5-18.2,4.5-25.7,7.1-13.8,12.1-18.9c5-5,10.8-8.9,17.2-11.5,6.4-2.6,13-4,19.7-4s14,1.2,20.5,3.6,12.3,5.9,17.2,10.6c5,4.7,8.9,10.5,11.8,17.5,2.9,7,4.3,15.1,4.3,24.2v3.7h-86.9v.5c0,15.2,3.3,27.7,9.8,37.4,6.5,9.7,16.1,14.6,28.7,14.6s18-2.6,24.6-7.8,10.8-11.9,12.5-20.1h11ZM388.7,100.5c-9.5,0-17.1,3.4-22.9,10.2-5.8,6.8-9.1,17.2-9.9,31.2h65.5c-.3-13.5-3.1-23.8-8.5-30.9s-13.4-10.6-24.1-10.6h-.1ZM483.2,156.6v54.3h-18.2v-116.7h17.7v24c2.9-7.6,7.8-13.9,14.4-19,6.7-5,14.7-7.6,24-7.6s21.5,3.5,29.7,10.4,12.2,19.1,12.2,36.7v72.2h-18.2v-73.6c0-13-2.5-22.3-7.6-27.7-5-5.4-11.5-8.2-19.5-8.2s-17.8,4.7-24.6,14.1c-6.8,9.4-10.1,23.1-10.1,41.1h.2ZM640.4,136.6h-31.4v74.3h-19.3V47.8h50.8c21.7,0,38,3.7,48.9,11.2s16.3,18.3,16.3,32.6-1.1,10.9-3.3,15.6-5.1,8.7-8.7,12c-3.7,3.3-8,6.1-12.9,8.2-5,2.1-10.2,3.5-15.8,4.1v.5c8.2.9,15.4,4.1,21.5,9.6,6.1,5.4,10.7,14.1,13.6,26.1l10.7,43.3h-20l-10.5-44c-3-12.4-7.8-20.6-14.7-24.5-6.8-3.9-15.2-5.8-25.2-5.8h0ZM609,58.1v68.2h31c16.1,0,27.6-3.3,34.5-9.8,6.8-6.5,10.2-14.7,10.2-24.5s-3.3-18.1-9.9-24.5c-6.6-6.4-18.1-9.6-34.6-9.6h-31.2v.2ZM829.8,175.7c-2.2,11.5-7.7,20.6-16.7,27.4-8.9,6.8-20,10.1-33.2,10.1s-15.6-1.4-22.6-4.2-13-6.8-18.2-12.1c-5.1-5.3-9.1-11.7-12-19.3s-4.3-16.2-4.3-25.9,1.5-18.2,4.5-25.7,7.1-13.8,12.1-18.9c5-5,10.8-8.9,17.2-11.5s13-4,19.7-4,14,1.2,20.5,3.6,12.3,5.9,17.2,10.6c5,4.7,8.9,10.5,11.8,17.5,2.9,7,4.3,15.1,4.3,24.2v3.7h-86.9v.5c0,15.2,3.3,27.7,9.8,37.4,6.5,9.7,16.1,14.6,28.7,14.6s18-2.6,24.6-7.8,10.8-11.9,12.5-20.1h11ZM776.4,100.5c-9.5,0-17.1,3.4-22.9,10.2-5.8,6.8-9.1,17.2-9.9,31.2h65.5c-.3-13.5-3.1-23.8-8.5-30.9s-13.4-10.6-24.1-10.6h0ZM952,210.9l-32.6-93.6-30.7,93.6h-13.7l-41-116.7h18.9l32.8,93.6,30.5-93.6h13.7l32.8,94.1,30.5-94.1h11.2l-38.7,116.7h-13.7ZM1037.4,143.3v67.5h-18.2v-116.7h17.7v23.3c.6-2,1.4-4,2.4-5.9s2.2-3.8,3.6-5.5c3.3-4,7.1-7.1,11.4-9.2s9.2-3.1,14.7-3.1,2.2,0,3.3,0c1.1,0,2.1.2,3,.3v15.6c-1.6-.2-3.3-.3-5.2-.6-1.9-.2-4-.3-6.2-.3-3.3,0-6.4.5-9.5,1.5s-5.9,2.8-8.5,5.4-4.6,6.1-6.2,10.6c-1.6,4.5-2.3,10.2-2.3,17h0ZM1089.7,67.4v-20.7h20v20.7h-20ZM1090.6,210.9v-116.7h18.2v116.7h-18.2ZM1173.2,211.1c-9.5,0-16.5-1.8-21.1-5.4-4.6-3.6-6.9-10.7-6.9-21.4v-80.8h-21.2v-9.3h21.2v-21.4l17.5-12.3h.7v33.8h31.7v9.3h-31.7v81.1c0,6.8,1.1,11.4,3.3,13.7,2.2,2.3,6.3,3.5,12.3,3.5h16.1v8.9c-2.5.2-5.6.3-9.2.3s-7.9.1-12.7.1h0ZM1304.4,175.7c-2.2,11.5-7.7,20.6-16.7,27.4-8.9,6.8-20,10.1-33.2,10.1s-15.6-1.4-22.6-4.2-13-6.8-18.2-12.1c-5.1-5.3-9.1-11.7-12-19.3s-4.3-16.2-4.3-25.9,1.5-18.2,4.5-25.7,7.1-13.8,12.1-18.9c5-5,10.8-8.9,17.2-11.5,6.4-2.6,13-4,19.7-4s14,1.2,20.5,3.6,12.3,5.9,17.2,10.6c5,4.7,8.9,10.5,11.8,17.5,2.9,7,4.3,15.1,4.3,24.2v3.7h-86.9v.5c0,15.2,3.3,27.7,9.8,37.4,6.5,9.7,16.1,14.6,28.7,14.6s18-2.6,24.6-7.8,10.8-11.9,12.5-20.1h11ZM1251.1,100.5c-9.5,0-17.1,3.4-22.9,10.2-5.8,6.8-9.1,17.2-9.9,31.2h65.5c-.3-13.5-3.1-23.8-8.5-30.9s-13.4-10.6-24.1-10.6h0Z"/>
        <g class="cls-1">
          <g class="cls-1">
            <path d="M649.3,346.1v12.1h-9.6v-90.8h9.8v39.3c3.7-7.4,10.8-13.1,21.8-13.1,16.1,0,28.2,11.7,28.2,32.5s-12.4,33.3-28.4,33.3-18.4-6.1-21.9-13.4ZM688.5,326.2c0-16.9-6.7-27.2-19.2-27.2s-20.2,11.1-20.2,27.2,8.8,28,20.2,28,19.2-10.6,19.2-28Z"/>
            <path d="M723.4,382.2l8.8-23.5-27.6-63.7h10.8l21.6,50.9,18.7-50.9h6.3l-32.4,87.1h-6.2Z"/>
            <path d="M815.4,275.7v82.5h-6.6v-88.3h15.3l31.5,75,31.5-75h14.4v88.3h-10.5v-82l-34.3,82h-6.8l-34.6-82.5Z"/>
            <path d="M919.4,326.2c0-19.5,13.5-32.7,31.4-32.7s31.4,13.1,31.4,32.7-13.7,33.3-31.4,33.3-31.4-13-31.4-33.3ZM971.1,326.2c0-15.9-6.4-27.9-20.3-27.9s-20.3,12-20.3,27.9,6.4,28.5,20.3,28.5,20.3-12.2,20.3-28.5Z"/>
            <path d="M1044.5,345.6c-3.5,7.6-11,13.9-21.9,13.9-16.3,0-28.4-12-28.4-33.3s12.2-32.5,28.2-32.5,18.2,5.8,21.8,12.9v-39.1h9.8v90.8h-9.6v-12.6ZM1044.6,326.2c0-16.1-9-27.2-20.2-27.2s-19.3,10.2-19.3,27.2,6.8,28,19.3,28,20.2-11.5,20.2-28Z"/>
            <path d="M1101.7,359.5c-17.7,0-30.9-12.5-30.9-33.3s14.4-32.5,29-32.5,29.1,10.5,29.1,30.3v2h-47v.3c0,16.5,7.1,28.1,20.8,28.1s18.2-6.2,20-15.1h5.9c-2.4,12.5-12.6,20.3-27,20.3ZM1082,320.9h35.4c-.4-14.6-5.9-22.4-17.7-22.4s-16.9,7.3-17.8,22.4Z"/>
            <path d="M1155.4,358.2h-9.8v-63.2h9.6v12.6c.8-2.1,1.8-4.3,3.3-6.2,3.5-4.4,8.2-6.7,14.1-6.7s2.4.1,3.4.3v8.4c-1.8-.3-3.8-.5-6.2-.5-6.9,0-14.4,3.8-14.4,18.7v36.6Z"/>
            <path d="M1198.4,358.2h-9.8v-63.2h9.6v13c3.2-8.3,10.7-14.4,20.8-14.4s22.7,6.4,22.7,25.5v39.1h-9.8v-39.8c0-14.1-5.9-19.4-14.6-19.4s-18.8,10.3-18.8,29.9v29.4Z"/>
            <path d="M1288.1,359.5c-17.7,0-30.9-12.5-30.9-33.3s14.4-32.5,29-32.5,29.1,10.5,29.1,30.3v2h-47v.3c0,16.5,7.1,28.1,20.8,28.1s18.2-6.2,20-15.1h5.9c-2.4,12.5-12.6,20.3-27,20.3ZM1268.4,320.9h35.4c-.4-14.6-5.9-22.4-17.7-22.4s-16.9,7.3-17.8,22.4Z"/>
          </g>
        </g>
        <path d="M1336.5,104.2c0,6.7-5.4,12.1-12.1,12.1s-12.2-5.4-12.2-12.1,5.4-12.2,12.2-12.2,12.1,5.5,12.1,12.2ZM1334.1,104.2c0-5.6-4.3-10-9.7-10s-9.8,4.4-9.8,10,4.3,9.9,9.8,9.9,9.7-4.4,9.7-9.9ZM1329.6,101.9c0,1.9-1.4,3.3-3.8,3.5l3.8,4.6h-2.3l-3.7-4.6h-1.6v4.6h-2v-11.7h5.1c2.8,0,4.4,1.4,4.4,3.6h0ZM1322.1,103.7h3.1c1.5,0,2.5-.6,2.5-1.9s-1-1.9-2.5-1.9h-3.1v3.7h0Z"/>
      </g>
    </g>
  </g>
</svg>