<svg xmlns="http://www.w3.org/2000/svg" width="270" height="29" fill="none" viewBox="0 0 270 29">
  <path fill="#fff" d="M266.034 14.025c-.412 0-.762.094-1.052.284a2.535 2.535 0 0 0-.701.717c-.178.279-.317.59-.417.935a5.17 5.17 0 0 0-.167.952l1.068.033a37.656 37.656 0 0 0 2.221 0c.378-.01.745-.022 1.101-.033 0-.3-.027-.618-.083-.952a2.718 2.718 0 0 0-.301-.935 1.914 1.914 0 0 0-.617-.717c-.267-.19-.618-.284-1.052-.284Zm-3.856 3.856c0-1.369.323-2.443.968-3.222.657-.779 1.608-1.168 2.855-1.168.59 0 1.096.094 1.519.283.434.179.796.423 1.085.735.289.3.501.656.634 1.068a3.942 3.942 0 0 1 .201 1.653c0 .1-.006.206-.017.317l-1.786-.033a95.002 95.002 0 0 0-1.786-.017c-.368 0-.735.006-1.102.017l-1.085.033a1.3 1.3 0 0 0-.017.25v.218c0 .434.061.84.184 1.218.133.379.322.707.567.985.245.267.545.484.902.651.356.156.768.234 1.235.234.223 0 .451-.028.684-.084a4.97 4.97 0 0 0 .685-.25c.222-.111.428-.24.617-.384.201-.145.373-.3.518-.467l.083.05-.1.818a4.584 4.584 0 0 1-1.252.684 4.22 4.22 0 0 1-1.536.284c-.601 0-1.151-.09-1.652-.267a3.926 3.926 0 0 1-1.286-.801 3.853 3.853 0 0 1-.834-1.252 4.17 4.17 0 0 1-.284-1.553Zm-3.15-.985c0-.835-.161-1.463-.484-1.886-.322-.434-.768-.651-1.335-.651-.779 0-1.352.239-1.72.717-.356.48-.534 1.152-.534 2.02v1.42c0 .5.006 1.029.017 1.585.022.546.061 1.04.117 1.486a8.71 8.71 0 0 0-1.503 0c.056-.445.089-.94.1-1.486a38.45 38.45 0 0 0 .034-1.586V16.78c0-.5-.011-1.024-.034-1.569a16.153 16.153 0 0 0-.1-1.553c.312.056.562.084.751.084.089 0 .184-.006.284-.017.112-.022.24-.044.384-.066-.033.445-.05.89-.05 1.335h.034a3.397 3.397 0 0 1 1.118-1.102c.434-.267.952-.4 1.553-.4.311 0 .623.044.934.133.323.09.612.245.868.468.256.211.462.506.618.884.167.368.25.84.25 1.42 0 .478-.011.973-.033 1.485-.022.5-.033 1.035-.033 1.603v1.619l.033.484a7.057 7.057 0 0 0-1.385 0l.066-1.786c.034-.612.05-1.241.05-1.887v-1.018Zm-7.178-1.87c-.056-.066-.167-.128-.334-.183a1.427 1.427 0 0 0-.484-.084c-.267 0-.506.061-.718.184-.211.122-.389.29-.534.5a2.23 2.23 0 0 0-.334.735 3.328 3.328 0 0 0-.117.902v3.556c.011.389.034.706.067.951a7.071 7.071 0 0 0-1.369 0c.034-.378.05-.89.05-1.536.011-.656.017-1.458.017-2.404v-.534c0-.434-.006-.935-.017-1.502 0-.568-.016-1.219-.05-1.954l.351.067a3.525 3.525 0 0 0 .667 0l.351-.066c-.045.4-.072.717-.083.951v.668l.033.017c.657-1.202 1.391-1.803 2.203-1.803.101 0 .184.005.251.016.078.011.172.04.284.084-.056.133-.089.34-.1.617-.012.268-.017.512-.017.735l-.117.083Zm-8.998-1.001c-.412 0-.762.094-1.052.284a2.535 2.535 0 0 0-.701.717c-.178.279-.317.59-.417.935a5.17 5.17 0 0 0-.167.952l1.068.033a37.656 37.656 0 0 0 2.221 0c.378-.01.745-.022 1.101-.033 0-.3-.027-.618-.083-.952a2.718 2.718 0 0 0-.301-.935 1.914 1.914 0 0 0-.617-.717c-.267-.19-.618-.284-1.052-.284Zm-3.856 3.856c0-1.369.323-2.443.968-3.222.657-.779 1.608-1.168 2.855-1.168.59 0 1.096.094 1.519.283.434.179.796.423 1.085.735.289.3.501.656.634 1.068a3.942 3.942 0 0 1 .201 1.653c0 .1-.006.206-.017.317l-1.786-.033a95.03 95.03 0 0 0-1.787-.017c-.367 0-.734.006-1.101.017l-1.085.033a1.3 1.3 0 0 0-.017.25v.218c0 .434.061.84.183 1.218.134.379.323.707.568.985.245.267.545.484.902.651a3.05 3.05 0 0 0 1.235.234c.222 0 .451-.028.684-.084a4.97 4.97 0 0 0 .685-.25c.222-.111.428-.24.617-.384.201-.145.373-.3.518-.467l.083.05-.1.818a4.584 4.584 0 0 1-1.252.684 4.22 4.22 0 0 1-1.536.284c-.601 0-1.151-.09-1.652-.267a3.926 3.926 0 0 1-1.286-.801 3.853 3.853 0 0 1-.834-1.252 4.17 4.17 0 0 1-.284-1.553Zm-7.69-.083c0 .667.066 1.218.2 1.652.145.434.323.785.534 1.052.223.256.473.434.751.534.279.1.551.15.818.15.434 0 .807-.105 1.119-.317a2.7 2.7 0 0 0 .768-.851 3.8 3.8 0 0 0 .45-1.202c.101-.445.151-.89.151-1.336 0-1.068-.206-1.88-.618-2.437-.412-.567-1.018-.851-1.82-.851-.4 0-.751.094-1.051.284a2.22 2.22 0 0 0-.735.767 4.008 4.008 0 0 0-.434 1.152 6.98 6.98 0 0 0-.133 1.403ZM236.047 20a4.069 4.069 0 0 1-.368.584c-.144.2-.334.39-.567.568-.223.178-.49.323-.802.434a3.218 3.218 0 0 1-1.085.167c-.423 0-.84-.072-1.252-.217a2.942 2.942 0 0 1-1.085-.701c-.311-.334-.567-.757-.768-1.269-.189-.523-.283-1.146-.283-1.87 0-.712.105-1.33.317-1.853.211-.523.484-.957.818-1.302a3.27 3.27 0 0 1 1.152-.784 3.406 3.406 0 0 1 1.302-.267c1.235 0 2.092.556 2.571 1.669h.033v-1.636c0-.423-.006-.846-.017-1.269 0-.434-.005-.846-.016-1.235 0-.39-.006-.757-.017-1.102 0-.345-.006-.65-.017-.918.134.022.262.045.384.067a4.065 4.065 0 0 0 .718 0c.122-.022.256-.045.401-.067-.034.356-.062.874-.084 1.553a487.62 487.62 0 0 0-.067 2.22l-.033 2.504a185.15 185.15 0 0 0-.017 2.354c0 .768.006 1.458.017 2.07l.033 1.886a6.408 6.408 0 0 0-1.285 0l.05-1.586h-.033Zm-14.134-2.353c0 .468.039.919.117 1.353.089.434.233.823.434 1.168.2.334.467.601.801.801.334.2.746.3 1.235.3.49 0 .902-.1 1.236-.3.333-.2.601-.467.801-.8.2-.346.339-.735.417-1.17.089-.433.134-.884.134-1.352 0-.467-.045-.918-.134-1.352a3.386 3.386 0 0 0-.417-1.152 2.263 2.263 0 0 0-.801-.818c-.334-.2-.746-.3-1.236-.3-.489 0-.901.1-1.235.3-.334.2-.601.473-.801.818a3.627 3.627 0 0 0-.434 1.152 7.634 7.634 0 0 0-.117 1.352Zm-1.469 0c0-.756.116-1.396.35-1.92.245-.534.562-.962.952-1.285a3.564 3.564 0 0 1 1.302-.718c.49-.155.974-.233 1.452-.233.49 0 .974.078 1.453.233a3.58 3.58 0 0 1 1.302.718c.389.323.701.751.935 1.286.244.523.367 1.163.367 1.92 0 .756-.123 1.402-.367 1.936a3.6 3.6 0 0 1-.935 1.285 3.5 3.5 0 0 1-1.302.685c-.479.133-.963.2-1.453.2-.478 0-.962-.067-1.452-.2a3.484 3.484 0 0 1-1.302-.685 3.762 3.762 0 0 1-.952-1.285c-.234-.534-.35-1.18-.35-1.937Zm-12.715-7.746c.767 1.58 1.541 3.117 2.32 4.608.79 1.491 1.614 3.021 2.471 4.59.111-.21.272-.511.484-.9.211-.402.456-.858.734-1.37.278-.512.573-1.063.885-1.652.323-.601.646-1.208.968-1.82l.985-1.803.902-1.653h.217c.122 1.069.233 2.104.334 3.106.111.99.222 1.97.333 2.938l.334 2.854c.112.935.234 1.864.368 2.788a2.453 2.453 0 0 0-.401-.033h-.785c-.122 0-.25.01-.384.033-.122-1.48-.245-2.916-.367-4.307a122.6 122.6 0 0 0-.451-4.257h-.033a506.849 506.849 0 0 0-2.27 4.19 65.44 65.44 0 0 0-2.104 4.34h-.15a125 125 0 0 0-2.103-4.206 482.524 482.524 0 0 1-2.187-4.324h-.034c-.078.69-.167 1.441-.267 2.254a196.04 196.04 0 0 0-.25 2.387c-.078.779-.145 1.52-.201 2.22-.055.69-.083 1.258-.083 1.703a4.74 4.74 0 0 0-.584-.033c-.212 0-.406.01-.585.033.145-.901.295-1.853.451-2.855.156-1.001.306-2.008.451-3.021.145-1.013.278-2.009.401-2.988.122-.99.228-1.931.317-2.822h.284Zm-11.992 11.703c-.122-.3-.284-.69-.484-1.169-.189-.478-.395-.98-.618-1.502-.222-.535-.45-1.074-.684-1.62a89.906 89.906 0 0 0-.668-1.552 102.223 102.223 0 0 0-.885-2.103c.145.022.279.044.401.066a4.06 4.06 0 0 0 .735 0c.122-.022.256-.044.4-.066a46.92 46.92 0 0 0 1.152 3.171c.423 1.046.868 2.126 1.336 3.239a41.8 41.8 0 0 0 1.335-3.139 50.425 50.425 0 0 0 1.152-3.271c.223.055.406.083.551.083.144 0 .328-.028.551-.083a41.87 41.87 0 0 0-.384.8c-.167.368-.373.813-.618 1.336l-.785 1.72a538.68 538.68 0 0 1-.868 1.936l-.868 1.97a98.13 98.13 0 0 0-.801 1.836c-.245.59-.462 1.119-.651 1.586a27.62 27.62 0 0 0-.401 1.136 2.393 2.393 0 0 0-.567-.084c-.156 0-.345.028-.568.084a33.875 33.875 0 0 0 2.237-4.374Zm-5.577-4.241c0-.511-.067-.962-.2-1.352a3.04 3.04 0 0 0-.501-1.001 1.94 1.94 0 0 0-.718-.601 1.729 1.729 0 0 0-.835-.217c-.345 0-.679.066-1.001.2a1.922 1.922 0 0 0-.818.634c-.234.29-.423.674-.568 1.152-.133.468-.2 1.046-.2 1.736 0 2.237.812 3.356 2.437 3.356.345 0 .662-.09.952-.267.289-.19.539-.456.751-.802.222-.345.395-.756.517-1.235a6.442 6.442 0 0 0 .184-1.603Zm1.469.05c0 .646-.1 1.236-.3 1.77a4.17 4.17 0 0 1-.802 1.386 3.512 3.512 0 0 1-1.202.884c-.456.2-.951.301-1.485.301a3.136 3.136 0 0 1-1.453-.334c-.423-.234-.745-.512-.968-.835-.401.323-.774.646-1.119.969h-.3c.022-.267.039-.59.05-.969.022-.378.039-.779.05-1.201.011-.435.017-.874.017-1.32.011-.445.017-.856.017-1.235v-3.021c0-.379-.006-.79-.017-1.236 0-.445-.006-.884-.017-1.318a39.807 39.807 0 0 0-.05-1.236c-.011-.4-.028-.74-.05-1.018.312.056.562.083.751.083.123 0 .251-.005.384-.016.134-.022.278-.045.434-.067-.033.223-.061.579-.083 1.068a55.286 55.286 0 0 0-.05 1.62l-.034 1.836c-.011.623-.022 1.19-.033 1.703h.033c.379-.601.796-1.04 1.252-1.32.457-.277.985-.416 1.586-.416.579 0 1.08.11 1.503.334a3.03 3.03 0 0 1 1.051.85c.279.357.484.774.618 1.253.145.467.217.963.217 1.486ZM10.91 22.85c-1.53 0-2.964-.272-4.304-.827a9.814 9.814 0 0 1-3.452-2.314c-.961-1.002-1.733-2.207-2.301-3.628C.284 14.66 0 13.09 0 11.371c0-1.72.284-3.358.866-4.779.582-1.421 1.367-2.612 2.356-3.573A10.243 10.243 0 0 1 6.687.785C8.013.257 9.42 0 10.91 0c1.49 0 2.87.257 4.197.785a10.511 10.511 0 0 1 3.478 2.234c1.002.96 1.787 2.165 2.37 3.573.581 1.421.865 3.005.865 4.778 0 1.774-.284 3.29-.852 4.711-.569 1.421-1.34 2.626-2.315 3.628a10.122 10.122 0 0 1-3.465 2.314c-1.34.542-2.762.826-4.278.826Zm0-1.327c1.246 0 2.355-.244 3.33-.731a7.075 7.075 0 0 0 2.477-2.044c.677-.88 1.192-1.95 1.543-3.195.352-1.245.542-2.64.542-4.183 0-3.086-.704-5.536-2.112-7.35-1.408-1.814-3.33-2.707-5.766-2.707-2.437 0-4.386.907-5.78 2.707-1.394 1.814-2.098 4.25-2.098 7.35 0 3.1.176 2.924.514 4.183.352 1.245.853 2.315 1.53 3.195a6.932 6.932 0 0 0 2.477 2.044c.974.487 2.098.73 3.357.73h-.014Zm21.374 1.326c-1.327 0-2.45-.311-3.357-.947-.92-.637-1.597-1.381-2.071-2.274v8.893h-2.464V6.74h2.396v3.032c.447-.947 1.124-1.746 2.044-2.396.92-.65 2.085-.974 3.465-.974 1.381 0 1.95.176 2.803.541.866.352 1.61.88 2.233 1.57.636.69 1.123 1.543 1.475 2.559.352 1.015.542 2.165.542 3.465 0 1.3-.19 2.504-.555 3.546-.366 1.043-.866 1.909-1.503 2.613a6.236 6.236 0 0 1-2.26 1.61 7.12 7.12 0 0 1-2.789.556l.041-.014Zm-.474-1.326c1.57 0 2.775-.623 3.574-1.882.812-1.245 1.218-2.964 1.218-5.13s-.406-3.763-1.232-4.981c-.825-1.219-2.003-1.828-3.56-1.828-1.556 0-2.653.636-3.614 1.895-.961 1.26-1.435 2.897-1.435 4.914s.488 3.79 1.462 5.076c.975 1.286 2.166 1.922 3.574 1.922l.013.014Zm24.122-3.75c-.298 1.557-1.043 2.789-2.26 3.709-1.205.92-2.708 1.367-4.495 1.367s-2.111-.19-3.059-.568a7.08 7.08 0 0 1-2.464-1.638c-.69-.718-1.231-1.584-1.624-2.613-.392-1.029-.582-2.193-.582-3.506 0-1.313.203-2.463.61-3.478.405-1.016.96-1.868 1.637-2.559a7.034 7.034 0 0 1 2.328-1.556 7.058 7.058 0 0 1 2.667-.542 8.21 8.21 0 0 1 2.775.487c.88.325 1.665.799 2.328 1.435.677.636 1.205 1.422 1.597 2.37.393.947.582 2.043.582 3.275v.5H44.21v.068c0 2.058.447 3.75 1.327 5.063.88 1.313 2.18 1.976 3.885 1.976 1.705 0 2.436-.352 3.33-1.056a4.546 4.546 0 0 0 1.692-2.72h1.475l.014-.014Zm-7.229-10.18c-1.286 0-2.314.461-3.1 1.382-.785.92-1.231 2.328-1.34 4.223h8.867c-.04-1.828-.42-3.222-1.15-4.183-.732-.96-1.815-1.435-3.263-1.435l-.014.014Zm12.792 7.595v7.35h-2.463V6.74h2.396v3.25c.392-1.029 1.055-1.882 1.949-2.572.907-.677 1.99-1.029 3.248-1.029 1.26 0 2.91.474 4.02 1.408 1.11.934 1.652 2.585 1.652 4.968v9.773h-2.463v-9.963c0-1.76-.339-3.018-1.03-3.75-.676-.73-1.556-1.11-2.639-1.11-1.083 0-2.41.637-3.33 1.91-.92 1.272-1.367 3.126-1.367 5.563h.027Zm21.28-2.708h-4.251v10.058H75.91V.46h6.877c2.937 0 5.144.501 6.619 1.516 1.475 1.016 2.206 2.477 2.206 4.413 0 1.936-.149 1.476-.446 2.112a5.116 5.116 0 0 1-1.178 1.624c-.5.447-1.083.826-1.746 1.11a7.543 7.543 0 0 1-2.139.555v.068a5.075 5.075 0 0 1 2.91 1.3c.826.73 1.449 1.908 1.841 3.532l1.449 5.861h-2.708l-1.42-5.956c-.407-1.678-1.057-2.788-1.99-3.316-.921-.528-2.058-.785-3.412-.785v-.014ZM78.523 1.854v9.232h4.196c2.18 0 3.736-.447 4.67-1.326.92-.88 1.38-1.99 1.38-3.317 0-1.326-.446-2.45-1.34-3.316-.893-.866-2.45-1.3-4.683-1.3h-4.223v.027Zm29.888 15.92c-.298 1.556-1.042 2.788-2.261 3.708-1.204.92-2.707 1.367-4.494 1.367-1.786 0-2.111-.19-3.059-.568a7.08 7.08 0 0 1-2.464-1.638c-.69-.718-1.231-1.584-1.624-2.613-.392-1.029-.582-2.193-.582-3.506 0-1.313.203-2.463.61-3.478.405-1.016.96-1.868 1.637-2.559a7.035 7.035 0 0 1 2.328-1.556 7.058 7.058 0 0 1 2.667-.542 8.21 8.21 0 0 1 2.775.487 6.65 6.65 0 0 1 2.328 1.435c.677.636 1.205 1.422 1.597 2.37.393.947.582 2.043.582 3.275v.5H96.689v.068c0 2.058.447 3.75 1.327 5.063.88 1.313 2.179 1.976 3.885 1.976 1.705 0 2.436-.352 3.33-1.056.893-.704 1.462-1.61 1.692-2.72h1.475l.014-.014Zm-7.229-10.18c-1.286 0-2.314.46-3.1 1.38-.784.921-1.231 2.329-1.34 4.224h8.867c-.041-1.828-.42-3.222-1.151-4.183-.731-.96-1.814-1.435-3.262-1.435l-.014.014Zm23.77 14.944-4.413-12.67-4.155 12.67h-1.855L108.98 6.74h2.559l4.44 12.67 4.128-12.67h1.855l4.44 12.738L130.53 6.74h1.516l-5.238 15.797h-1.855Zm11.56-9.15v9.136h-2.464V6.728h2.396V9.88a4.583 4.583 0 0 1 .813-1.543 4.641 4.641 0 0 1 1.543-1.245c.582-.284 1.245-.42 1.99-.42.744 0 .297 0 .446.014.149 0 .285.027.406.04V8.84c-.216-.027-.446-.04-.704-.081a8.1 8.1 0 0 0-.839-.04c-.447 0-.866.067-1.286.202-.419.136-.798.38-1.15.731-.352.352-.623.826-.84 1.435-.216.61-.311 1.38-.311 2.301Zm7.08-10.275V.311h2.707v2.802h-2.707Zm.121 19.425V6.74h2.464v15.797h-2.464Zm11.181.027c-1.286 0-2.233-.244-2.856-.731-.623-.487-.934-1.448-.934-2.897V8h-2.87V6.74h2.87V3.844l2.369-1.665h.095v4.576h4.291v1.258h-4.291v10.978c0 .92.149 1.544.446 1.855.298.311.853.474 1.665.474h2.18v1.204c-.339.027-.758.04-1.246.04-.5 0-1.069.014-1.719.014v-.013Zm17.76-4.792c-.298 1.557-1.042 2.789-2.261 3.709-1.204.92-2.707 1.367-4.494 1.367s-2.111-.19-3.059-.568a7.087 7.087 0 0 1-2.464-1.638c-.69-.718-1.231-1.584-1.624-2.613-.392-1.029-.582-2.193-.582-3.506 0-1.313.203-2.463.609-3.478.406-1.016.961-1.868 1.638-2.559a7.04 7.04 0 0 1 2.328-1.556 7.062 7.062 0 0 1 2.667-.542 8.21 8.21 0 0 1 2.775.487 6.65 6.65 0 0 1 2.328 1.435c.677.636 1.205 1.422 1.597 2.37.393.947.582 2.043.582 3.275v.5h-11.763v.068c0 2.058.447 3.75 1.327 5.063.88 1.313 2.179 1.976 3.885 1.976s2.436-.352 3.33-1.056c.893-.704 1.462-1.61 1.692-2.72h1.475l.014-.014Zm-7.215-10.18c-1.286 0-2.315.461-3.1 1.382-.785.92-1.232 2.328-1.34 4.223h8.866c-.04-1.828-.419-3.222-1.15-4.183-.731-.96-1.814-1.435-3.262-1.435l-.014.014ZM177 8.095c0 .907-.731 1.638-1.638 1.638a1.646 1.646 0 0 1-1.651-1.638 1.65 1.65 0 0 1 1.651-1.652c.921 0 1.638.745 1.638 1.652Zm-.325 0c0-.758-.582-1.354-1.313-1.354s-1.326.596-1.326 1.354c0 .758.582 1.34 1.326 1.34.745 0 1.313-.596 1.313-1.34Zm-.609-.312c0 .258-.19.447-.514.474l.514.623h-.311l-.501-.623h-.217v.623h-.271V7.296h.691c.379 0 .595.19.595.487h.014Zm-1.015.244h.419c.203 0 .339-.081.339-.257s-.136-.257-.339-.257h-.419v.514Z"/>
</svg>
