<?xml version="1.0" encoding="UTF-8" standalone="no"?>
<svg
   xmlns:dc="http://purl.org/dc/elements/1.1/"
   xmlns:cc="http://creativecommons.org/ns#"
   xmlns:rdf="http://www.w3.org/1999/02/22-rdf-syntax-ns#"
   xmlns:svg="http://www.w3.org/2000/svg"
   xmlns="http://www.w3.org/2000/svg"
   xmlns:sodipodi="http://sodipodi.sourceforge.net/DTD/sodipodi-0.dtd"
   xmlns:inkscape="http://www.inkscape.org/namespaces/inkscape"
   version="1.1"
   id="svg887"
   xml:space="preserve"
   width="720"
   height="405"
   viewBox="0 0 720 405"
   sodipodi:docname="moderne-poster-logo.svg"
   inkscape:version="1.0.1 (c497b03c, 2020-09-10)"
   inkscape:export-filename="/Users/jon/Downloads/moderne-poster-logo.png"
   inkscape:export-xdpi="96.711113"
   inkscape:export-ydpi="96.711113"><sodipodi:namedview
     pagecolor="#ffffff"
     bordercolor="#666666"
     borderopacity="1"
     objecttolerance="10"
     gridtolerance="10"
     guidetolerance="10"
     inkscape:pageopacity="0"
     inkscape:pageshadow="2"
     inkscape:window-width="1440"
     inkscape:window-height="847"
     id="namedview939"
     showgrid="false"
     units="in"
     inkscape:zoom="0.7893164"
     inkscape:cx="417.48769"
     inkscape:cy="250.96164"
     inkscape:window-x="0"
     inkscape:window-y="25"
     inkscape:window-maximized="0"
     inkscape:current-layer="g953" /><metadata
     id="metadata893"><rdf:RDF><cc:Work
         rdf:about=""><dc:format>image/svg+xml</dc:format><dc:type
           rdf:resource="http://purl.org/dc/dcmitype/StillImage" /><dc:title></dc:title></cc:Work></rdf:RDF></metadata><defs
     id="defs891"><clipPath
       clipPathUnits="userSpaceOnUse"
       id="clipPath905"><path
         d="M 0,792 H 1224 V 0 H 0 Z"
         id="path903" /></clipPath><clipPath
       clipPathUnits="userSpaceOnUse"
       id="clipPath957"><path
         d="M 0,0 H 1224 V 792 H 0 Z"
         id="path955" /></clipPath></defs><g
     id="g895"
     transform="matrix(1.3333333,0,0,-1.3333333,-764.55305,584.07145)"><g
       id="g953"
       clip-path="url(#clipPath957)"
       style="fill:#000000"
       transform="translate(38.007573,-153.93067)"><g
         id="g972"
         transform="translate(-3.0619444,19.0319)"><g
           id="g947"
           transform="translate(672.22428,310.88012)"
           style="fill:#000000"><path
             d="M 0,0 -21.955,52.253 H -32.581 V -9.221 h 4.567 V 48.213 L -3.951,-9.221 H 0.792 L 24.678,47.862 V -9.221 h 7.288 V 52.253 H 21.955 Z"
             style="fill:#000000;fill-opacity:1;fill-rule:nonzero;stroke:none"
             id="path949" /></g><g
           id="g959"
           transform="translate(751.53218,340.43132)"
           style="fill:#000000"><path
             d="m 0,0 c -1.932,1.961 -4.244,3.498 -6.937,4.611 -2.694,1.111 -5.592,1.668 -8.694,1.668 -3.104,0 -6.002,-0.557 -8.694,-1.668 C -27.02,3.498 -29.33,1.961 -31.262,0 c -1.932,-1.962 -3.457,-4.347 -4.568,-7.157 -1.112,-2.811 -1.669,-5.914 -1.669,-9.309 0,-3.513 0.557,-6.704 1.669,-9.572 1.111,-2.869 2.649,-5.313 4.611,-7.334 1.96,-2.019 4.272,-3.571 6.937,-4.653 2.664,-1.084 5.547,-1.625 8.651,-1.625 3.044,0 5.912,0.557 8.607,1.668 2.691,1.112 5.004,2.664 6.937,4.655 1.932,1.989 3.469,4.42 4.61,7.289 1.142,2.868 1.713,6.059 1.713,9.572 0,3.395 -0.558,6.498 -1.668,9.309 C 3.455,-4.347 1.932,-1.962 0,0 m -2.327,-24.326 c -0.557,-2.43 -1.421,-4.538 -2.59,-6.323 -1.172,-1.787 -2.649,-3.176 -4.436,-4.172 -1.786,-0.996 -3.878,-1.492 -6.278,-1.492 -2.401,0 -4.494,0.496 -6.278,1.492 -1.789,0.996 -3.266,2.385 -4.436,4.172 -1.171,1.785 -2.035,3.893 -2.59,6.323 -0.559,2.429 -0.836,5.05 -0.836,7.86 0,2.751 0.277,5.313 0.836,7.684 0.555,2.371 1.419,4.42 2.59,6.147 1.17,1.726 2.647,3.088 4.436,4.084 1.784,0.995 3.877,1.493 6.278,1.493 2.4,0 4.492,-0.498 6.278,-1.493 1.787,-0.996 3.264,-2.358 4.436,-4.084 1.169,-1.727 2.033,-3.776 2.59,-6.147 0.557,-2.371 0.835,-4.933 0.835,-7.684 0,-2.81 -0.278,-5.431 -0.835,-7.86"
             style="fill:#000000;fill-opacity:1;fill-rule:nonzero;stroke:none"
             id="path961" /></g><g
           id="g963"
           transform="translate(798.75238,337.66502)"
           style="fill:#000000"><path
             d="m 0,0 c -1.288,2.459 -3.191,4.566 -5.707,6.323 -2.518,1.756 -5.68,2.635 -9.486,2.635 -2.752,0 -5.343,-0.498 -7.772,-1.493 -2.428,-0.996 -4.522,-2.459 -6.278,-4.391 -1.757,-1.932 -3.132,-4.304 -4.128,-7.114 -0.996,-2.809 -1.492,-6.03 -1.492,-9.66 0,-3.688 0.496,-6.981 1.492,-9.879 0.996,-2.898 2.371,-5.329 4.128,-7.289 1.756,-1.962 3.85,-3.456 6.278,-4.479 2.429,-1.024 5.051,-1.537 7.861,-1.537 3.805,0 6.996,0.951 9.572,2.854 2.576,1.902 4.479,4.172 5.708,6.806 v -8.782 h 6.675 v 63.23 H 0 Z m -3.731,-27.751 c -2.665,-3.63 -6.017,-5.445 -10.055,-5.445 -4.334,0 -7.656,1.77 -9.968,5.313 -2.314,3.542 -3.469,8.269 -3.469,14.183 0,5.913 1.142,10.552 3.425,13.919 2.283,3.367 5.62,5.051 10.012,5.051 3.864,0 7.17,-1.757 9.923,-5.27 2.751,-3.513 4.127,-8.079 4.127,-13.7 0,-5.738 -1.332,-10.421 -3.995,-14.051"
             style="fill:#000000;fill-opacity:1;fill-rule:nonzero;stroke:none"
             id="path965" /></g><g
           id="g967"
           transform="translate(849.02918,341.26532)"
           style="fill:#000000"><path
             d="m 0,0 c -1.875,1.757 -4.041,3.087 -6.499,3.996 -2.459,0.907 -5.035,1.362 -7.728,1.362 -2.517,0 -4.992,-0.499 -7.42,-1.494 -2.431,-0.996 -4.597,-2.445 -6.499,-4.347 -1.903,-1.903 -3.425,-4.274 -4.566,-7.113 -1.142,-2.84 -1.714,-6.075 -1.714,-9.704 0,-3.63 0.541,-6.88 1.625,-9.748 1.082,-2.869 2.591,-5.299 4.523,-7.289 1.932,-1.991 4.215,-3.513 6.849,-4.567 2.636,-1.053 5.474,-1.58 8.52,-1.58 4.975,0 9.147,1.273 12.514,3.82 3.366,2.547 5.458,5.985 6.279,10.319 H 1.756 c -0.644,-3.104 -2.211,-5.636 -4.698,-7.597 -2.49,-1.962 -5.578,-2.942 -9.265,-2.942 -4.743,0 -8.343,1.83 -10.801,5.489 -2.46,3.658 -3.69,8.357 -3.69,14.095 v 0.175 H 6.06 v 1.406 c 0,3.454 -0.542,6.498 -1.625,9.133 C 3.351,-3.951 1.872,-1.756 0,0 m -26.61,-13.612 c 0.293,5.27 1.537,9.191 3.733,11.768 2.196,2.575 5.078,3.864 8.65,3.864 4.039,0 7.07,-1.332 9.09,-3.996 2.019,-2.665 3.087,-6.542 3.205,-11.636 z"
             style="fill:#000000;fill-opacity:1;fill-rule:nonzero;stroke:none"
             id="path969" /></g><g
           id="g971"
           transform="translate(882.89028,345.83252)"
           style="fill:#000000"><path
             d="m 0,0 c -2.05,0 -3.893,-0.396 -5.532,-1.186 -1.64,-0.791 -3.075,-1.947 -4.303,-3.469 -0.528,-0.644 -0.982,-1.332 -1.363,-2.064 -0.38,-0.732 -0.687,-1.478 -0.92,-2.239 v 8.782 h -6.675 v -43.997 h 6.849 v 25.467 c 0,2.576 0.293,4.713 0.879,6.411 0.584,1.697 1.361,3.03 2.327,3.996 0.966,0.966 2.034,1.638 3.206,2.02 1.169,0.38 2.37,0.57 3.6,0.57 0.818,0 1.595,-0.043 2.327,-0.132 0.731,-0.087 1.39,-0.161 1.975,-0.219 v 5.884 C 2.019,-0.118 1.639,-0.074 1.23,-0.044 0.819,-0.015 0.409,0 0,0"
             style="fill:#000000;fill-opacity:1;fill-rule:nonzero;stroke:none"
             id="path973" /></g><g
           id="g975"
           transform="translate(923.90178,342.71462)"
           style="fill:#000000"><path
             d="m 0,0 c -3.073,2.604 -6.806,3.908 -11.198,3.908 -3.511,0 -6.527,-0.952 -9.045,-2.854 -2.518,-1.904 -4.333,-4.29 -5.443,-7.157 v 9.045 h -6.675 v -43.997 h 6.85 v 20.462 c 0,6.79 1.273,11.957 3.82,15.5 2.547,3.541 5.634,5.313 9.265,5.313 2.986,0 5.429,-1.025 7.332,-3.074 1.903,-2.05 2.854,-5.533 2.854,-10.45 v -27.751 h 6.85 v 27.224 C 4.61,-7.216 3.074,-2.605 0,0"
             style="fill:#000000;fill-opacity:1;fill-rule:nonzero;stroke:none"
             id="path977" /></g><g
           id="g979"
           transform="translate(977.29508,324.14082)"
           style="fill:#000000"><path
             d="m 0,0 v 1.405 c 0,3.454 -0.542,6.499 -1.625,9.134 -1.084,2.634 -2.563,4.829 -4.435,6.586 -1.875,1.756 -4.04,3.087 -6.498,3.996 -2.46,0.907 -5.036,1.361 -7.729,1.361 -2.517,0 -4.992,-0.498 -7.42,-1.493 -2.431,-0.996 -4.597,-2.445 -6.499,-4.347 -1.903,-1.903 -3.425,-4.275 -4.566,-7.114 -1.143,-2.84 -1.714,-6.074 -1.714,-9.704 0,-3.63 0.541,-6.88 1.625,-9.747 1.082,-2.87 2.591,-5.3 4.523,-7.289 1.932,-1.991 4.215,-3.513 6.849,-4.567 2.636,-1.054 5.474,-1.58 8.52,-1.58 4.975,0 9.147,1.272 12.514,3.819 3.366,2.547 5.458,5.986 6.278,10.319 h -4.127 c -0.644,-3.103 -2.211,-5.635 -4.698,-7.596 -2.49,-1.962 -5.577,-2.942 -9.265,-2.942 -4.743,0 -8.343,1.829 -10.801,5.489 -2.46,3.657 -3.69,8.356 -3.69,14.094 V 0 Z m -28.937,15.281 c 2.196,2.575 5.078,3.864 8.65,3.864 4.039,0 7.07,-1.333 9.089,-3.996 2.02,-2.665 3.088,-6.542 3.206,-11.636 H -32.67 c 0.293,5.269 1.537,9.191 3.733,11.768"
             style="fill:#000000;fill-opacity:1;fill-rule:nonzero;stroke:none"
             id="path981" /></g></g><g
         id="g983"
         transform="matrix(2.8380128,0,0,2.7155026,887.83185,560.07703)"
         style="fill:#000000"><path
           d="M 0,0 C -0.584,0.24 -1.261,0.109 -1.709,-0.34 L -28.702,-27.333 C -30.476,-11.906 -43.6,0.12 -59.495,0.121 c -0.416,0 -0.814,-0.166 -1.109,-0.46 -0.294,-0.294 -0.459,-0.692 -0.459,-1.109 v -29.448 -10e-4 -0.001 -29.448 c 0,-0.025 0.009,-0.049 0.011,-0.074 0.003,-0.076 0.018,-0.149 0.033,-0.224 0.016,-0.079 0.031,-0.157 0.058,-0.232 0.008,-0.023 0.008,-0.047 0.017,-0.069 0.019,-0.045 0.052,-0.081 0.074,-0.124 0.039,-0.072 0.077,-0.143 0.126,-0.209 0.045,-0.06 0.097,-0.112 0.149,-0.165 0.054,-0.054 0.107,-0.106 0.168,-0.152 0.065,-0.048 0.134,-0.085 0.205,-0.123 0.044,-0.023 0.08,-0.057 0.126,-0.076 0.019,-0.008 0.039,-0.004 0.058,-0.011 0.172,-0.065 0.352,-0.109 0.543,-0.109 h 29.446 29.448 c 0.866,0 1.569,0.703 1.569,1.568 v 29.45 29.448 C 0.968,-0.814 0.586,-0.243 0,0 m -2.168,-5.233 v -24.095 h -24.094 z m 0,-38.82 H -28.48 v 11.589 h 26.312 z m -55.759,-12.508 v 24.095 h 24.094 L -45.88,-44.513 Z m 0,53.502 c 14.126,-0.787 25.48,-12.142 26.267,-26.269 h -26.267 z m 14.263,-43.671 12.047,12.047 v -24.095 h -24.094 z m 15.183,-0.459 h 26.312 v -11.589 h -26.312 z"
           style="fill:#000000;fill-opacity:1;fill-rule:nonzero;stroke:none"
           id="path985" /></g></g></g></svg>
